<svg xmlns="http://www.w3.org/2000/svg" fill="none" viewBox="0 0 192 192"><path stroke="currentColor" stroke-width="12" stroke-linejoin="round" stroke-linecap="round" d="M96 88c-7-13.32-26-38.2-43.5-50.5C35.4 26.9 27.5 28.9 23 30.7c-4.9 2.2-5.8 9.6-5.8 13.8 0 4.4 2.4 35.6 4 40.8 5.2 17.3 23.8 23.1 40.8 21.2-25.1 3.6-47.3 12.6-18.1 44.6 32 32.7 44-7 50-27.1 6.1 20.2 13.1 58.4 49.5 27.1 27.3-27.1 7.6-41-17.5-44.6 17.1 1.9 35.7-4 40.8-21.2 1.6-5.1 4-36.5 4-40.8 0-4.4-.8-11.8-5.8-13.9-4.3-1.9-10.7-4-27.5 7.7C119 49.8 103 74.7 96 88Z"/></svg>
