<svg xmlns="http://www.w3.org/2000/svg" width="24" height="25" fill="none"><path fill="currentColor" d="M24 11.3c0 8.04-5.73 7.68-6.4 7.68-.8 0-1.47-.12-2.13-.48-.54-.36-1.07-.72-1.34-1.32a4.37 4.37 0 0 1-1.73 1.32c-.67.36-1.33.48-2.13.48-.67 0-1.34-.12-1.87-.36a3.07 3.07 0 0 1-1.33-1.2 3.85 3.85 0 0 1-.8-1.8c-.14-.72-.14-1.56-.14-2.4.14-1.08.4-2.04.8-3 .4-.84.94-1.68 1.47-2.28a5.84 5.84 0 0 1 4.4-1.92c2.67 0 4.13 1.2 4.4 1.44l-.67 7.44c0 .48-.26 2.16 1.47 2.16.53 0 3.2-.6 3.2-5.64 0-.12 1.2-8.4-8.8-8.4-8-.12-9.73 6.96-9.73 9.48 0 10.08 7.06 9.6 9.33 9.6 2.67 0 4.13-.48 4.4-.6l.53 2.16c-.26.24-1.6.84-4.93.84-4.13 0-12-.12-12-12C0 10.82 1.07.5 12.67.5 23.73.5 24 9.62 24 11.3ZM9.47 13.22c-.14 1.08 0 2.04.26 2.64.27.6.8.84 1.6.84 1.47 0 2.27-1.68 2.4-2.16l.67-6.12c-.13 0-.93-.12-1.2-.12-1.07 0-2 .48-2.53 1.32-.67.72-1.07 1.92-1.2 3.6Z"/></svg>
