<svg xmlns="http://www.w3.org/2000/svg" xml:space="preserve" fill-rule="evenodd" stroke-linejoin="round" stroke-miterlimit="2" viewBox="0 0 192 192"><path d="M96.3 16h-.57c-19.87.16-38.97 2.5-50.13 7.6-.5.21-24.58 10.78-24.58 47 0 7.39-.14 16.23.09 25.6.4 16.44 2 32.74 7.21 45.96 5.67 14.4 15.47 25.34 32.04 29.72 14.11 3.74 26.23 4.5 35.99 3.97h.01c18.41-1.02 28.71-6.7 28.71-6.7a6.02 6.02 0 0 0 3.16-5.56l-.56-12.17a5.98 5.98 0 0 0-2.56-4.65 6 6 0 0 0-5.24-.8s-11.04 3.47-23.45 3.04c-4.87-.16-9.84-.35-14.18-1.54-3.91-1.07-7.14-3.15-8.76-7.35 5.59.95 13.45 2.02 22.27 2.43 10.49.48 20.33-.6 30.33-1.79 12.37-1.47 23.76-6.69 31.4-13.09 5.8-4.86 9.47-10.5 10.5-15.8 3.23-16.62 3.05-40.43 3.04-41.32-.01-36.29-24.23-46.8-24.58-46.95-11.14-5.1-30.25-7.44-50.14-7.6Zm59.9 93.58.09-.47c3.1-15.95 2.73-38.45 2.73-38.45v-.07c0-27.63-17.49-36.04-17.49-36.04a.23.23 0 0 0-.05-.02c-10.05-4.62-27.33-6.38-45.26-6.53h-.41c-17.93.15-35.2 1.91-45.25 6.53l-.06.02s-17.48 8.4-17.48 36.04c0 7.3-.15 16.05.09 25.31.36 14.97 1.64 29.84 6.37 41.86 4.27 10.84 11.49 19.22 23.95 22.52 12.65 3.35 23.51 4.07 32.26 3.58 9.61-.53 16.56-2.5 20.36-3.89l-.04-.73a89.08 89.08 0 0 1-20 1.77c-16.29-.56-32.69-3.03-35.34-23.02a40.2 40.2 0 0 1-.35-5.4 6 6 0 0 1 2.3-4.72 6 6 0 0 1 5.13-1.1s12.59 3.06 28.55 3.79c9.81.45 19.01-.6 28.36-1.71 9.88-1.18 19.01-5.26 25.11-10.37 3.36-2.82 5.83-5.84 6.43-8.9ZM102 73.34c.68-2.6 3.99-12.81 14.27-12.81 10.68 0 10.54 12.14 10.54 12.14v34.22a6 6 0 0 0 12 0v-34.4s-.68-23.96-22.54-23.96c-10 0-16.43 5.3-20.4 10.78C91.8 54.03 85.25 49 75.09 49c-6.92 0-11.53 2.14-14.68 4.86-6.67 5.75-6.86 14.83-6.81 16.95l.02.45-.02-.45v-.05 36.34a6 6 0 0 0 12 0V70.77l-.02-.5s-.5-4.59 2.66-7.3C69.69 61.7 71.9 61 75.09 61c10.65 0 14.18 9.85 14.91 12.39v20.23a6 6 0 0 0 12 0v-20.3Z"/></svg>
