<svg xmlns="http://www.w3.org/2000/svg" width="24" height="25" fill="none"><path fill="currentColor" d="M24 8.38c0-5.2-3.66-6.73-3.66-6.73-1.84-.8-5-1.12-8.3-1.15h-.08c-3.29.03-6.45.36-8.3 1.15 0 0-3.65 1.52-3.65 6.73 0 1.2-.03 2.62.01 4.13.14 5.09 1 10.1 6.05 11.35 2.33.58 4.33.7 5.93.62 2.92-.15 4.56-.97 4.56-.97l-.1-1.98s-2.08.61-4.42.54c-2.33-.08-4.77-.23-5.15-2.9-.03-.24-.05-.49-.05-.74 0 0 2.28.52 5.16.65 1.77.07 3.42-.1 5.1-.29 3.23-.36 6.03-2.2 6.39-3.9.56-2.67.5-6.51.5-6.51Zm-4.31 6.7H17V8.98c0-1.3-.58-1.95-1.75-1.95-1.28 0-1.93.78-1.93 2.32v3.35h-2.66V9.34c0-1.54-.64-2.32-1.93-2.32-1.17 0-1.75.66-1.75 1.95v6.12H4.32v-6.3c0-1.3.35-2.32 1.05-3.08a3.8 3.8 0 0 1 2.87-1.14c1.37 0 2.4.49 3.1 1.47L12 7.08l.67-1.04c.68-.98 1.72-1.47 3.1-1.47a3.8 3.8 0 0 1 2.86 1.14c.7.76 1.06 1.78 1.06 3.07v6.3Z"/></svg>
