<svg xmlns="http://www.w3.org/2000/svg" fill="none" viewBox="0 0 192 192"><path stroke="currentColor" stroke-width="12" d="M23.07 88.13s65.46-26.78 88.16-36.21c8.7-3.77 38.22-15.84 38.22-15.84s13.62-5.28 12.48 7.54c-.38 5.28-3.4 23.76-6.43 43.76-4.54 28.29-9.46 59.22-9.46 59.22s-.75 8.67-7.19 10.18c-6.43 1.51-17.02-5.28-18.91-6.79-1.52-1.13-28.38-18.1-38.22-26.4-2.65-2.26-5.67-6.8.38-12.07a1442.35 1442.35 0 0 0 39.73-37.72c4.54-4.53 9.08-15.1-9.84-2.27-26.86 18.49-53.35 35.84-53.35 35.84s-6.05 3.77-17.4.38c-11.35-3.4-24.6-7.93-24.6-7.93s-9.08-5.65 6.44-11.69Z"/></svg>
